<svg id="f1e42e27-05d8-4a82-8f4c-194f35685dd9" data-name="Icon" xmlns="http://www.w3.org/2000/svg" viewBox="0 0 36 36">
  <defs>
    <style>
      .e4d6c066-34bb-457c-bc7e-a3612597b688 {
        fill: #e00;
      }
    </style>
  </defs>
  <path class="e4d6c066-34bb-457c-bc7e-a3612597b688" d="M21.32,17.8C27.8,14.41,25.42,4.39,18,4.38s-9.8,10-3.32,13.42A13.63,13.63,0,0,0,4.38,31a.61.61,0,0,0,.62.62H31a.61.61,0,0,0,.62-.62A13.63,13.63,0,0,0,21.32,17.8Zm-9.2-6.3c.25-7.76,11.51-7.76,11.76,0C23.63,19.26,12.37,19.26,12.12,11.5ZM5.64,30.38C7,14.79,29.05,14.8,30.36,30.38Z"/>
</svg>
